<svg version="1.1" viewBox="0.0 0.0 464.0 161.0" fill="none" stroke="none" stroke-linecap="square" stroke-miterlimit="10" xmlns:xlink="http://www.w3.org/1999/xlink" xmlns="http://www.w3.org/2000/svg"><clipPath id="p.0"><path d="m0 0l464.0 0l0 161.0l-464.0 0l0 -161.0z" clip-rule="nonzero"/></clipPath><g clip-path="url(#p.0)"><path fill="#000000" fill-opacity="0.0" d="m0 0l464.0 0l0 161.0l-464.0 0z" fill-rule="evenodd"/><path fill="#000000" fill-opacity="0.0" d="m-23.937008 -6.7598424l511.87402 0l0 174.51968l-511.87402 0z" fill-rule="evenodd"/><path fill="#0e3d59" d="m113.793495 126.91704q-4.625 0 -8.296875 -2.703125q-3.65625 -2.703125 -5.78125 -6.96875q-2.125 -4.28125 -2.125 -8.96875q0 -3.96875 0.578125 -8.796875q0.578125 -4.828125 1.484375 -9.625q0.921875 -4.8125 3.078125 -7.703125l0.578125 0.15625q-1.40625 5.953125 -4.640625 13.1875q-3.234375 7.234375 -5.890625 14.828125q-2.65625 7.59375 -4.6875 16.125q-5.546875 -0.171875 -9.515625 -0.609375q-3.953125 -0.421875 -6.0 -2.921875q-3.578125 -1.78125 -5.34375 -5.71875q-1.75 -3.953125 -2.15625 -8.640625q-0.390625 -4.6875 -0.390625 -9.25q0 -1.75 0.328125 -5.03125q0.328125 -3.28125 0.90625 -7.09375q0.59375 -3.828125 2.8125 -6.484375l0.390625 0.3125q-3.953125 10.71875 -8.718754 21.640625q-4.765625 10.921875 -8.625 23.796875q-5.796875 -0.1875 -8.578125 -1.5q-2.765625 -1.328125 -5.125 -3.671875q-4.03125 -2.21875 -5.796875 -6.109375q-1.765625 -3.890625 -1.765625 -8.171875q0 -11.890625 1.46875 -26.328125q1.484375 -14.4375 4.71875 -29.546875q1.03125 -4.109375 4.0 -4.109375q3.65625 0 7.296875 1.75q3.65625 1.734375 6.09375 5.296875q2.4375 3.546875 2.4375 8.78125q0 1.0 -0.140625 2.21875q-0.140625 1.203125 -0.421875 2.328125l-6.8125 23.40625l-0.25 -0.1875q3.4375 -11.5 8.4375 -21.03125q5.0 -9.546875 10.515629 -15.71875q1.734375 -2.109375 4.96875 -2.109375q4.265625 0 8.671875 3.3125q3.171875 1.234375 5.15625 3.703125q2.0 2.46875 2.0 5.34375q0 0.265625 0 0.890625q0 0.609375 -0.25 1.109375q-1.96875 7.140625 -3.234375 15.46875q-1.25 8.3125 -2.578125 15.3125l-0.640625 -0.15625q2.75 -9.75 7.15625 -18.890625q4.421875 -9.15625 11.75 -18.59375q1.65625 -1.875 4.609375 -1.875q4.359375 0 9.0 3.28125q3.078125 1.078125 5.296875 3.140625q2.21875 2.0625 3.546875 4.9375q-2.03125 9.90625 -3.3125 21.390625q-1.265625 11.484375 -1.265625 21.734375q0 3.265625 0.1875 6.296875q0.203125 3.015625 0.5625 7.21875q-3.328125 1.546875 -5.6875 1.546875z" fill-rule="nonzero"/><path fill="#88a61b" d="m149.40038 126.91704q-4.328125 0 -8.359375 -1.546875q-4.03125 -1.53125 -6.265625 -5.5q-4.0 -2.1875 -5.734375 -5.421875q-1.7343674 -3.25 -1.7343674 -7.203125q0 -7.984375 3.7968674 -14.203125q3.8125 -6.21875 10.15625 -9.796875q6.34375 -3.59375 13.90625 -3.59375q3.0625 0 6.03125 0.34375q2.984375 0.34375 3.84375 0.84375q-0.078125 0.015625 0.421875 -3.734375q0.5 -3.765625 0.5 -6.96875q0 -2.671875 -0.328125 -3.796875q-0.3125 -1.125 -0.484375 -1.125q-1.546875 0 -3.140625 1.109375q-1.578125 1.109375 -3.4375 2.984375q-1.859375 1.859375 -4.1875 3.4375q-2.3125 1.5625 -5.234375 1.5625q-3.0625 0 -6.8125 -1.984375q-3.75 -1.984375 -6.578125 -4.875q-2.8125 -2.90625 -2.8125 -5.640625q0 -2.171875 2.84375 -4.71875q2.84375 -2.546875 7.125 -4.953125q4.28125 -2.40625 9.515625 -4.078125q5.234375 -1.6875 10.671875 -1.6875q3.609375 0 7.109375 0.984375q3.515625 0.984375 6.328125 3.03125q6.484375 1.890625 9.609375 6.40625q3.140625 4.515625 3.140625 12.703125q0 2.375 -0.453125 8.171875q-0.4375 5.796875 -1.09375 13.421875q-0.640625 7.625 -1.390625 15.78125q-0.109375 2.78125 0.703125 6.796875q0.828125 4.0 0.828125 7.15625q0 2.296875 -1.0625 4.203125q-1.046875 1.890625 -4.0 1.890625q-2.640625 0 -6.109375 -1.1875q-3.46875 -1.1875 -6.796875 -3.328125q-3.328125 -2.15625 -4.015625 -3.046875q-1.90625 2.140625 -6.640625 4.859375q-4.71875 2.703125 -9.859375 2.703125zm1.28125 -20.0q1.671875 0 4.359375 -1.046875q2.6875 -1.0625 5.328125 -2.671875q2.640625 -1.625 3.59375 -2.59375l0.15625 -2.3125q-0.953125 -0.953125 -3.0625 -0.953125q-2.234375 0 -4.796875 1.609375q-2.546875 1.609375 -4.28125 3.828125q-1.71875 2.21875 -1.71875 3.953125q0 0.1875 0 0.1875q0 0 0.421875 0z" fill-rule="nonzero"/><path fill="#f29f05" d="m283.32953 126.91704q-4.625 0 -8.296875 -2.703125q-3.65625 -2.703125 -5.78125 -6.96875q-2.125 -4.28125 -2.125 -8.96875q0 -3.96875 0.578125 -8.796875q0.578125 -4.828125 1.484375 -9.625q0.921875 -4.8125 3.078125 -7.703125l0.578125 0.15625q-1.40625 5.953125 -4.640625 13.1875q-3.234375 7.234375 -5.890625 14.828125q-2.65625 7.59375 -4.6875 16.125q-5.546875 -0.171875 -9.515625 -0.609375q-3.953125 -0.421875 -6.0 -2.921875q-3.578125 -1.78125 -5.34375 -5.71875q-1.75 -3.953125 -2.15625 -8.640625q-0.390625 -4.6875 -0.390625 -9.25q0 -1.75 0.328125 -5.03125q0.328125 -3.28125 0.90625 -7.09375q0.59375 -3.828125 2.8125 -6.484375l0.390625 0.3125q-3.953125 10.71875 -8.718765 21.640625q-4.765625 10.921875 -8.625 23.796875q-5.796875 -0.1875 -8.578125 -1.5q-2.765625 -1.328125 -5.125 -3.671875q-4.03125 -2.21875 -5.796875 -6.109375q-1.765625 -3.890625 -1.765625 -8.171875q0 -11.890625 1.46875 -26.328125q1.484375 -14.4375 4.71875 -29.546875q1.03125 -4.109375 4.0 -4.109375q3.65625 0 7.296875 1.75q3.65625 1.734375 6.09375 5.296875q2.4375 3.546875 2.4375 8.78125q0 1.0 -0.140625 2.21875q-0.140625 1.203125 -0.421875 2.328125l-6.8125 23.40625l-0.25 -0.1875q3.4375 -11.5 8.4375 -21.03125q5.0 -9.546875 10.51564 -15.71875q1.734375 -2.109375 4.96875 -2.109375q4.265625 0 8.671875 3.3125q3.171875 1.234375 5.15625 3.703125q2.0 2.46875 2.0 5.34375q0 0.265625 0 0.890625q0 0.609375 -0.25 1.109375q-1.96875 7.140625 -3.234375 15.46875q-1.25 8.3125 -2.578125 15.3125l-0.640625 -0.15625q2.75 -9.75 7.15625 -18.890625q4.421875 -9.15625 11.75 -18.59375q1.65625 -1.875 4.609375 -1.875q4.359375 0 9.0 3.28125q3.078125 1.078125 5.296875 3.140625q2.21875 2.0625 3.546875 4.9375q-2.03125 9.90625 -3.3125 21.390625q-1.265625 11.484375 -1.265625 21.734375q0 3.265625 0.1875 6.296875q0.203125 3.015625 0.5625 7.21875q-3.328125 1.546875 -5.6875 1.546875z" fill-rule="nonzero"/><path fill="#f25c05" d="m329.95203 126.91704q-3.875 0 -7.453125 -1.5625q-3.5625 -1.5625 -4.5 -3.265625q-0.625 0.34375 -2.78125 0.921875q-2.15625 0.578125 -3.828125 0.578125q-3.84375 0 -6.171875 -2.15625q-2.328125 -2.171875 -3.421875 -5.28125q-1.078125 -3.109375 -1.359375 -6.140625q-0.265625 -3.046875 -0.265625 -5.453125q0 -4.015625 0.3125 -11.390625q0.328125 -7.390625 0.84375 -16.484375q0.515625 -9.109375 1.15625 -18.46875q0.640625 -9.359375 1.40625 -17.53125q0.78125 -8.171875 1.5625 -13.640625q0.328125 -1.796875 1.28125 -3.390625q0.953125 -1.609375 4.015625 -1.609375q3.96875 0 8.046875 2.21875q4.078125 2.21875 6.859375 6.25q2.78125 4.015625 2.1875 9.484375l-1.671875 8.203125q-0.171875 -0.84375 1.875 -1.328125q2.0625 -0.5 4.203125 -0.5q5.546875 0 11.015625 2.4375q5.484375 2.421875 9.484375 7.46875q7.0625 5.484375 9.125 11.6875q2.078125 6.1875 2.078125 12.53125q0 8.125 -2.59375 16.21875q-2.578125 8.078125 -7.125 14.890625q-4.53125 6.8125 -10.78125 11.0625q-6.234375 4.25 -13.5 4.25zm6.53125 -60.421875q-3.296875 0 -5.875 1.96875q-2.5625 1.96875 -5.875 8.03125l-3.296875 31.0q1.90625 1.46875 4.546875 1.46875q3.359375 0 6.0625 -2.859375q2.71875 -2.875 4.59375 -7.78125q1.875 -4.921875 2.859375 -10.5625q1.0 -5.640625 1.0 -10.59375q0 -4.984375 -1.15625 -7.828125q-1.140625 -2.84375 -2.859375 -2.84375z" fill-rule="nonzero"/><path fill="#d92525" d="m401.1514 127.04204q-4.609375 0 -9.0 -1.796875q-4.375 -1.796875 -6.84375 -5.6875q-6.28125 -3.015625 -9.859375 -10.828125q-3.5625 -7.828125 -3.5625 -18.0q0 -8.734375 2.390625 -16.640625q2.390625 -7.90625 6.546875 -14.078125q4.171875 -6.1875 9.78125 -9.84375q5.609375 -3.671875 11.953125 -3.671875q5.203125 0 10.5 1.890625q5.296875 1.875 8.96875 6.46875q6.4375 3.28125 10.09375 9.921875q3.671875 6.625 3.671875 14.4375q0 9.578125 -1.984375 18.171875q-1.984375 8.59375 -6.171875 15.28125q-4.1875 6.6875 -10.78125 10.53125q-6.578125 3.84375 -15.703125 3.84375zm-2.5625 -18.078125q2.9375 0 5.46875 -2.859375q2.53125 -2.859375 4.46875 -7.78125q1.953125 -4.9375 3.0 -10.765625q1.0625 -5.828125 1.0625 -11.03125q0 -5.5625 -1.0625 -8.6875q-1.0625 -3.140625 -2.5625 -3.140625q-2.9375 0 -5.46875 2.859375q-2.53125 2.859375 -4.484375 7.796875q-1.9375 4.921875 -3.0 10.75q-1.046875 5.828125 -1.046875 11.03125q0 5.546875 1.109375 8.6875q1.109375 3.140625 2.515625 3.140625zm4.484375 -64.09375q-3.5625 0 -6.109375 -2.203125q-2.546875 -2.21875 -2.546875 -4.921875q0 -2.171875 1.953125 -3.9375q2.0625 -1.796875 5.375 -4.65625q3.328125 -2.875 6.796875 -6.109375q3.484375 -3.234375 6.140625 -6.015625q2.40625 -2.406251 5.28125 -2.406251q3.078125 0 5.5625 2.265626q2.484375 2.25 3.9375 5.390625q1.46875 3.125 1.46875 6.125q0 3.46875 -3.390625 6.40625q-3.390625 2.9375 -7.875 5.15625q-4.46875 2.21875 -9.046875 3.5625q-4.578125 1.34375 -7.546875 1.34375z" fill-rule="nonzero"/></g></svg>